#!OML:ASF X:\für Bonn\!DataBase\2005_08_10_Bjorn_Final\c3d\bjorn.ASF
:FULLY-SPECIFIED
:DEGREES
171
root -1.45906 18.1224 14.1897 -184.337 31.4997 176.244
lowerback -0.0212164 4.20486 2.35608
upperback 8.04757 6.38428 -3.09576
thorax 9.13653 3.70517 -4.02595
lowerneck -8.04388 4.13142 7.29949
upperneck -3.16411 5.16727 -8.54354
head 0.861881 2.54714 -3.92408
rclavicle 4.46769e-014 -4.19436e-014
rhumerus 47.1601 28.4615 -77.1758
rradius 82.5211
rwrist 33.5051
rhand -52.0706 9.582
rfingers 7.12502
rthumb -24.5752 -18.8607
lclavicle 4.46769e-014 -4.19436e-014
lhumerus 25.0682 -27.8502 89.4572
lradius 89.7715
lwrist 44.6884
lhand -49.2587 -8.62844
lfingers 7.12502
lthumb -21.8775 20.1547
rfemur 536.615 -174.21 -527.981
rtibia 41.3171
rfoot -32.9958 12.2296
rtoes -22.7428
lfemur 329.597 -0.473001 349.54
ltibia 45.8251
lfoot -6.5935 -0.641712
ltoes -23.3265
172
root -1.46606 18.0611 14.1514 -184.587 31.5953 176.055
lowerback 0.490936 4.08388 2.20448
upperback 8.26534 6.27674 -3.10571
thorax 9.04862 3.66356 -3.9945
lowerneck -8.40427 4.25895 7.31126
upperneck -3.35504 5.32868 -8.58728
head 0.87884 2.63082 -3.92916
rclavicle -1.98785e-016 -9.54166e-015
rhumerus 47.3367 28.6784 -76.9121
rradius 83.3481
rwrist 33.2619
rhand -52.0922 9.59058
rfingers 7.12502
rthumb -24.5959 -18.8493
lclavicle -1.98785e-016 -9.54166e-015
lhumerus 25.0652 -28.0753 89.4201
lradius 90.5588
lwrist 44.2396
lhand -49.1447 -8.39354
lfingers 7.12502
lthumb -21.768 20.4024
rfemur 536.265 -174.456 -528.231
rtibia 42.5296
rfoot -33.4395 12.0388
rtoes -23.2265
lfemur 329.152 -0.915282 349.584
ltibia 45.9724
lfoot -6.97862 -0.144711
ltoes -23.3822
173
root -1.47346 17.9964 14.1112 -184.802 31.691 175.885
lowerback 0.948871 3.96026 2.04217
upperback 8.50955 6.16439 -3.08109
thorax 9.01683 3.61809 -3.91397
lowerneck -8.85502 4.38335 7.25926
upperneck -3.519 5.4914 -8.63862
head 0.918727 2.71532 -3.9222
rclavicle 7.60848e-014 -4.51241e-014
rhumerus 47.6029 28.8848 -76.5589
rradius 84.1549
rwrist 33.0729
rhand -52.1631 9.74733
rfingers 7.12502
rthumb -24.6639 -18.6833
lclavicle 7.60848e-014 -4.51241e-014
lhumerus 25.1534 -28.2322 89.4203
lradius 91.3662
lwrist 43.7786
lhand -49.0756 -8.08524
lfingers 7.12502
lthumb -21.7017 20.7184
rfemur 535.857 -174.703 -528.472
rtibia 43.8052
rfoot -33.8654 11.9449
rtoes -23.7051
lfemur 328.654 -1.36837 349.674
ltibia 46.1428
lfoot -7.38495 0.368778
ltoes -23.337
174
root -1.48142 17.9281 14.0707 -184.946 31.7838 175.769
lowerback 1.36237 3.84215 1.94278
upperback 8.75758 6.05828 -3.06595
thorax 9.02597 3.58146 -3.87292
lowerneck -9.35036 4.49907 7.23695
upperneck -3.6937 5.64004 -8.68681
head 0.962455 2.79303 -3.91951
rclavicle -2.04748e-014 2.20651e-014
rhumerus 47.9258 29.0206 -76.206
rradius 84.968
rwrist 32.9487
rhand -52.2188 10.0212
rfingers 7.12502
rthumb -24.7173 -18.4021
lclavicle -2.04748e-014 2.20651e-014
lhumerus 25.352 -28.4229 89.3645
lradius 92.1396
lwrist 43.2871
lhand -49.0954 -7.76748
lfingers 7.12502
lthumb -21.7206 21.0339
rfemur 535.364 -174.948 -528.662
rtibia 45.1511
rfoot -34.3029 11.8273
rtoes -24.3167
lfemur 328.088 -1.83826 349.841
ltibia 46.3441
lfoot -7.7589 0.861559
ltoes -23.3286
175
root -1.48904 17.8556 14.0286 -185.018 31.8782 175.725
lowerback 1.72061 3.72137 1.89083
upperback 9.00172 5.94288 -3.03174
thorax 9.06622 3.54182 -3.83355
lowerneck -9.84983 4.61173 7.22854
upperneck -3.86648 5.78523 -8.76461
head 1.00887 2.86918 -3.92971
rclavicle -1.56543e-014 1.76918e-014
rhumerus 48.2376 29.1562 -75.8631
rradius 85.8419
rwrist 32.869
rhand -52.1801 10.3635
rfingers 7.12502
rthumb -24.6801 -18.0649
lclavicle -1.56543e-014 1.76918e-014
lhumerus 25.5988 -28.5889 89.285
lradius 92.9181
lwrist 42.8203
lhand -49.1669 -7.58704
lfingers 7.12502
lthumb -21.7893 21.2064
rfemur 534.804 -175.199 -528.787
rtibia 46.5625
rfoot -34.6899 11.8204
rtoes -24.7714
lfemur 327.465 -2.2552 350.088
ltibia 46.5886
lfoot -8.06675 1.3234
ltoes -23.4159
176
root -1.49737 17.779 13.9851 -185.007 31.9905 175.759
lowerback 2.04353 3.61079 1.91628
upperback 9.23542 5.83535 -2.98575
thorax 9.12432 3.51028 -3.82088
lowerneck -10.3612 4.72676 7.25102
upperneck -4.06725 5.93287 -8.88559
head 1.05131 2.94741 -3.96071
rclavicle -3.74212e-014 2.78299e-014
rhumerus 48.5913 29.2575 -75.5285
rradius 86.752
rwrist 32.7648
rhand -52.1144 10.7283
rfingers 7.12502
rthumb -24.6171 -17.7087
lclavicle -3.74212e-014 2.78299e-014
lhumerus 25.8705 -28.7711 89.2188
lradius 93.6941
lwrist 42.3056
lhand -49.2921 -7.3647
lfingers 7.12502
lthumb -21.9096 21.4147
rfemur 534.161 -175.508 -528.833
rtibia 48.0389
rfoot -35.0165 11.8977
rtoes -24.8425
lfemur 326.783 -2.58766 350.414
ltibia 46.8707
lfoot -8.23793 1.69118
ltoes -23.2676
177
root -1.50597 17.6998 13.9405 -184.917 32.0825 175.823
lowerback 2.3052 3.50675 1.95443
upperback 9.4451 5.73004 -2.92912
thorax 9.19229 3.47766 -3.79958
lowerneck -10.8236 4.81305 7.31544
upperneck -4.28811 6.04158 -9.08098
head 1.08013 3.00661 -4.02952
rclavicle -9.58639e-014 3.08116e-014
rhumerus 49.0226 29.2972 -75.12
rradius 87.6352
rwrist 32.6865
rhand -52.0327 11.0192
rfingers 7.12502
rthumb -24.5388 -17.4284
lclavicle -9.58639e-014 3.08116e-014
lhumerus 26.1562 -28.9749 89.1805
lradius 94.4207
lwrist 41.7652
lhand -49.4619 -7.32733
lfingers 7.12502
lthumb -22.0725 21.4329
rfemur 533.435 -175.831 -528.846
rtibia 49.5652
rfoot -35.3687 11.9417
rtoes -25.1464
lfemur 326.01 -2.94368 350.807
ltibia 47.1755
lfoot -8.28022 1.98025
ltoes -22.3867
